# xmcd
#
# Track frame offsets: 
#        150
#        9530
#        19673
#        29024
#        40866
#        51910
#        62868
#        74785
#        87078
#        100655
#        113547
#        124464
#        137705
#        147349
#        157557
#        169039
#        177990
#        189471
#        200456
#        212727
#        224141
#        237062
#        247862
#        258967
#        270555
#
# Disc length: 3778 seconds
#
# Revision: 1
# Processed by: cddbd v1.5.2PL0 Copyright (c) Steve Scherf et al.
# Submitted via: ExactAudioCopyFreeDBPlugin 1.0
#
DISCID=680ec019
DTITLE=Various Artist - The Vee Jay Records Story [Real Gone Music]
DYEAR=2017
DGENRE=Rhythm and Blues
TTITLE0=The Pips - Every Beat of My Heart
TTITLE1=Hal Davis - What Do You Mean to Me
TTITLE2=Dee Clark - You're Telling Our Secrets
TTITLE3=The "5" Royales - Much in Need
TTITLE4=Gene Chandler - Duke of Earl
TTITLE5=Gene Chandler - Kissin' in the Kitchen
TTITLE6=Preston Jackson and The Rhythm Aces - Be Mine
TTITLE7=The Tabs - Dance All By Myself
TTITLE8=The Moonglows - Real Gone Mama
TTITLE9=The Impressions - Say That You Love Me
TTITLE10=The Dukays - Nite Owl
TTITLE11=The "5" Royales - Help Me Somebody
TTITLE12=Ray Whitley - A Love We Can Have and Hold
TTITLE13=The Pearlettes - Duchess of Earl
TTITLE14=John Lee Hooker - Boom Boom
TTITLE15=The Duke of Earl - Walk on with the Duke
TTITLE16=Christine Kittrell - I'm a Woman
TTITLE17=Jimmy Reed - Good Lover
TTITLE18=Jerry Butler - Make it Easy on Yourself
TTITLE19=The Four Seasons - Sherry
TTITLE20=Jimmy Reed - I'll Change My Style
TTITLE21=Dee Clark - Nobody But You
TTITLE22=The Four Seasons - Big Girls Don't Cry
TTITLE23=Gene Chandler - You Threw a Lucky Punch
TTITLE24=Jimmy Reed - Let's Get Together
EXTD=
EXTT0=
EXTT1=
EXTT2=
EXTT3=
EXTT4=
EXTT5=
EXTT6=
EXTT7=
EXTT8=
EXTT9=
EXTT10=
EXTT11=
EXTT12=
EXTT13=
EXTT14=
EXTT15=
EXTT16=
EXTT17=
EXTT18=
EXTT19=
EXTT20=
EXTT21=
EXTT22=
EXTT23=
EXTT24=
PLAYORDER=
